<svg xmlns="http://www.w3.org/2000/svg" version="1.1" xmlns:xlink="http://www.w3.org/1999/xlink" xmlns:svgjs="http://svgjs.dev/svgjs" width="1440" height="560" preserveAspectRatio="none" viewBox="0 0 1440 560"><g mask="url(&quot;#SvgjsMask1172&quot;)" fill="none"><rect width="1440" height="560" x="0" y="0" fill="rgba(16, 16, 16, 1)"></rect><rect width="164.36" height="164.36" clip-path="url(&quot;#SvgjsClipPath1173&quot;)" x="270.5" y="464.1" fill="url(&quot;#SvgjsPattern1174&quot;)" transform="rotate(270.93, 352.68, 546.28)"></rect><rect width="180" height="180" clip-path="url(&quot;#SvgjsClipPath1175&quot;)" x="733.11" y="425.85" fill="url(&quot;#SvgjsPattern1176&quot;)" transform="rotate(309.5, 823.11, 515.85)"></rect><rect width="132.72" height="132.72" clip-path="url(&quot;#SvgjsClipPath1177&quot;)" x="829.95" y="369.43" fill="url(&quot;#SvgjsPattern1178&quot;)" transform="rotate(323.09, 896.31, 435.79)"></rect><rect width="168.52" height="168.52" clip-path="url(&quot;#SvgjsClipPath1179&quot;)" x="902.05" y="375.5" fill="url(&quot;#SvgjsPattern1180&quot;)" transform="rotate(218.92, 986.31, 459.76)"></rect><rect width="111.4" height="111.4" clip-path="url(&quot;#SvgjsClipPath1181&quot;)" x="1091.05" y="406.3" fill="url(&quot;#SvgjsPattern1182&quot;)" transform="rotate(207.31, 1146.75, 462)"></rect><path d="M1355.98 331.91999999999996 L1339.64 408.77L1298.4336853308794 320.96868533087945z" fill="rgba(229, 9, 20, 1)"></path><rect width="288" height="288" clip-path="url(&quot;#SvgjsClipPath1183&quot;)" x="757.85" y="262.58" fill="url(&quot;#SvgjsPattern1184&quot;)" transform="rotate(304.64, 901.85, 406.58)"></rect><circle r="79.17530460496843" cx="1422.79" cy="382.28" stroke="rgba(229, 9, 20, 1)" stroke-width="1" stroke-dasharray="3, 2"></circle><path d="M566.95 127.25a5.6 5.6 0 1 0 4.85-10.09 5.6 5.6 0 1 0-4.85 10.09zM573.88 112.83a5.6 5.6 0 1 0 4.85-10.09 5.6 5.6 0 1 0-4.85 10.09zM580.81 98.41a5.6 5.6 0 1 0 4.85-10.09 5.6 5.6 0 1 0-4.85 10.09zM587.74 83.99a5.6 5.6 0 1 0 4.85-10.09 5.6 5.6 0 1 0-4.85 10.09zM567.51 163.03a5.6 5.6 0 1 0 4.85-10.1 5.6 5.6 0 1 0-4.85 10.1zM574.44 148.61a5.6 5.6 0 1 0 4.85-10.1 5.6 5.6 0 1 0-4.85 10.1zM581.37 134.18a5.6 5.6 0 1 0 4.85-10.09 5.6 5.6 0 1 0-4.85 10.09zM588.3 119.76a5.6 5.6 0 1 0 4.85-10.09 5.6 5.6 0 1 0-4.85 10.09zM568.07 198.8a5.6 5.6 0 1 0 4.85-10.1 5.6 5.6 0 1 0-4.85 10.1zM575 184.38a5.6 5.6 0 1 0 4.85-10.1 5.6 5.6 0 1 0-4.85 10.1zM581.93 169.96a5.6 5.6 0 1 0 4.85-10.1 5.6 5.6 0 1 0-4.85 10.1zM588.86 155.54a5.6 5.6 0 1 0 4.85-10.1 5.6 5.6 0 1 0-4.85 10.1z" fill="rgba(229, 9, 20, 1)"></path><rect width="60" height="60" clip-path="url(&quot;#SvgjsClipPath1185&quot;)" x="140.37" y="202.58" fill="url(&quot;#SvgjsPattern1186&quot;)" transform="rotate(192.75, 170.37, 232.58)"></rect><rect width="132" height="132" clip-path="url(&quot;#SvgjsClipPath1187&quot;)" x="1192.65" y="109.02" fill="url(&quot;#SvgjsPattern1188&quot;)" transform="rotate(78.61, 1258.65, 175.02)"></rect><rect width="121.92" height="121.92" clip-path="url(&quot;#SvgjsClipPath1189&quot;)" x="238.87" y="232.84" fill="url(&quot;#SvgjsPattern1190&quot;)" transform="rotate(355.61, 299.83, 293.8)"></rect></g><defs><mask id="SvgjsMask1172"><rect width="1440" height="560" fill="#ffffff"></rect></mask><pattern x="0" y="0" width="11.74" height="11.74" patternUnits="userSpaceOnUse" id="SvgjsPattern1174"><path d="M0 11.74L5.87 0L11.74 11.74" stroke="rgba(229, 9, 20, 1)" fill="none"></path></pattern><clipPath id="SvgjsClipPath1173"><circle r="41.09" cx="352.68" cy="546.28"></circle></clipPath><pattern x="0" y="0" width="6" height="6" patternUnits="userSpaceOnUse" id="SvgjsPattern1176"><path d="M0 6L3 0L6 6" stroke="rgba(229, 9, 20, 1)" fill="none"></path></pattern><clipPath id="SvgjsClipPath1175"><circle r="45" cx="823.11" cy="515.85"></circle></clipPath><pattern x="0" y="0" width="132.72" height="11.06" patternUnits="userSpaceOnUse" id="SvgjsPattern1178"><rect width="132.72" height="5.53" x="0" y="0" fill="rgba(229, 9, 20, 1)"></rect><rect width="132.72" height="5.53" x="0" y="5.53" fill="rgba(0, 0, 0, 0)"></rect></pattern><clipPath id="SvgjsClipPath1177"><circle r="33.18" cx="896.31" cy="435.79"></circle></clipPath><pattern x="0" y="0" width="168.52" height="7.66" patternUnits="userSpaceOnUse" id="SvgjsPattern1180"><rect width="168.52" height="3.83" x="0" y="0" fill="rgba(229, 9, 20, 1)"></rect><rect width="168.52" height="3.83" x="0" y="3.83" fill="rgba(0, 0, 0, 0)"></rect></pattern><clipPath id="SvgjsClipPath1179"><circle r="42.13" cx="986.31" cy="459.76"></circle></clipPath><pattern x="0" y="0" width="11.14" height="11.14" patternUnits="userSpaceOnUse" id="SvgjsPattern1182"><path d="M0 11.14L5.57 0L11.14 11.14" stroke="rgba(229, 9, 20, 1)" fill="none"></path></pattern><clipPath id="SvgjsClipPath1181"><circle r="27.85" cx="1146.75" cy="462"></circle></clipPath><pattern x="0" y="0" width="6" height="6" patternUnits="userSpaceOnUse" id="SvgjsPattern1184"><path d="M3 1L3 5M1 3L5 3" stroke="rgba(229, 9, 20, 1)" fill="none" stroke-width="1.13"></path></pattern><clipPath id="SvgjsClipPath1183"><circle r="72" cx="901.85" cy="406.58"></circle></clipPath><pattern x="0" y="0" width="6" height="6" patternUnits="userSpaceOnUse" id="SvgjsPattern1186"><path d="M3 1L3 5M1 3L5 3" stroke="rgba(229, 9, 20, 1)" fill="none" stroke-width="1"></path></pattern><clipPath id="SvgjsClipPath1185"><circle r="15" cx="170.37" cy="232.58"></circle></clipPath><pattern x="0" y="0" width="6" height="6" patternUnits="userSpaceOnUse" id="SvgjsPattern1188"><path d="M0 6L3 0L6 6" stroke="rgba(229, 9, 20, 1)" fill="none"></path></pattern><clipPath id="SvgjsClipPath1187"><circle r="33" cx="1258.65" cy="175.02"></circle></clipPath><pattern x="0" y="0" width="10.16" height="10.16" patternUnits="userSpaceOnUse" id="SvgjsPattern1190"><path d="M0 10.16L5.08 0L10.16 10.16" stroke="rgba(229, 9, 20, 1)" fill="none"></path></pattern><clipPath id="SvgjsClipPath1189"><circle r="30.48" cx="299.83" cy="293.8"></circle></clipPath></defs></svg>